<?xml version="1.0" encoding="UTF-8" standalone="no"?>
<svg width="322px" height="82px" viewBox="0 0 322 82" version="1.1" xmlns="http://www.w3.org/2000/svg" xmlns:xlink="http://www.w3.org/1999/xlink" xmlns:sketch="http://www.bohemiancoding.com/sketch/ns">
    <!-- Generator: Sketch 3.1 (8751) - http://www.bohemiancoding.com/sketch -->
    <title>kinect</title>
    <desc>Created with Sketch.</desc>
    <defs></defs>
    <g id="Start-game" stroke="none" stroke-width="1" fill="none" fill-rule="evenodd" sketch:type="MSPage">
        <g id="Desktop-HD" sketch:type="MSArtboardGroup" transform="translate(-176.000000, -467.000000)">
            <g id="kinect" sketch:type="MSLayerGroup" transform="translate(136.500000, 308.500000)">
                <g id="Captions"></g>
                <g id="Your_Icon" transform="translate(40.000000, 159.000000)" fill="#000000" sketch:type="MSShapeGroup">
                    <path d="M310.484,42.892 L169.636,42.892 L169.636,48.028 C171.388,48.04 172.56,48.052 172.284,48.052 C173.764,48.052 175.704,48.836 177.064,49.44 C178.888,50.244 207.588,62.356 209.864,63.74 C212.14,65.12 210.66,67.424 209.864,69.616 C209.068,71.808 206.904,77.904 206.22,79.404 C205.536,80.904 204.968,81.248 202.804,81.248 L161.308,81.248 L159.072,81.248 L117.572,81.248 C115.408,81.248 114.84,80.904 114.156,79.404 C113.472,77.904 111.308,71.808 110.512,69.616 C109.716,67.424 108.236,65.12 110.512,63.74 C112.788,62.352 141.488,50.244 143.312,49.44 C144.672,48.84 146.616,48.052 148.096,48.052 C147.76,48.052 149.524,48.036 151.868,48.016 L151.868,42.892 L10.248,42.892 C4.584,42.892 0,38.248 0,32.516 L0,10.376 C0,4.644 4.588,0 10.248,0 L310.484,0 C316.144,0 320.732,4.648 320.732,10.376 L320.732,32.516 C320.736,38.248 316.144,42.892 310.484,42.892 L310.484,42.892 Z M83.112,10.364 C77.408,10.364 72.78,15.044 72.78,20.824 C72.78,26.6 77.404,31.284 83.112,31.284 C88.82,31.284 93.444,26.6 93.444,20.824 C93.444,15.044 88.82,10.364 83.112,10.364 L83.112,10.364 Z M113.856,18.684 C112.688,18.684 111.74,19.644 111.74,20.828 C111.74,22.012 112.688,22.972 113.856,22.972 C115.024,22.972 115.972,22.012 115.972,20.828 C115.972,19.644 115.028,18.684 113.856,18.684 L113.856,18.684 Z M143.928,10.364 C138.22,10.364 133.596,15.044 133.596,20.824 C133.596,26.6 138.22,31.284 143.928,31.284 C149.632,31.284 154.26,26.6 154.26,20.824 C154.26,15.044 149.636,10.364 143.928,10.364 L143.928,10.364 Z M175.36,10.364 C169.656,10.364 165.032,15.044 165.032,20.824 C165.032,26.6 169.656,31.284 175.36,31.284 C181.068,31.284 185.692,26.6 185.692,20.824 C185.692,15.044 181.068,10.364 175.36,10.364 L175.36,10.364 Z" id="path3075"></path>
                </g>
            </g>
        </g>
    </g>
</svg>